<svg width="450" height="450" fill="none" xmlns="http://www.w3.org/2000/svg"><path fill="#bcaba4" d="M53 54h63v63H53z"/><path fill="#9a8076" d="M53 124h63v63H53z"/><path fill="#bcaba4" d="M123 124h63v63h-63zM263 124h63v63h-63z"/><path fill="#9a8076" d="M53 194h63v63H53zM53 264h63v63H53z"/><path fill="#bcaba4" d="M193 194h63v63h-63z"/><path fill="#9a8076" d="M53 334h63v63H53zM333 124h63v63h-63z"/><path fill="#bcaba4" d="M333 54h63v63h-63z"/><path fill="#9a8076" d="M333 264h63v63h-63zM333 334h63v63h-63zM333 194h63v63h-63z"/></svg>
